<?xml version="1.0" encoding="utf-8"?>
<!-- Generator: Adobe Illustrator 18.0.0, SVG Export Plug-In . SVG Version: 6.00 Build 0)  -->
<!DOCTYPE svg PUBLIC "-//W3C//DTD SVG 1.1//EN" "http://www.w3.org/Graphics/SVG/1.1/DTD/svg11.dtd">
<svg version="1.1" id="Layer_1" xmlns="http://www.w3.org/2000/svg" xmlns:xlink="http://www.w3.org/1999/xlink" x="0px" y="0px"
	 viewBox="1.3 158 352.3 133.9" enable-background="new 1.3 158 352.3 133.9" xml:space="preserve">
<path fill="#002244" d="M19.7,192.3h47.4L63,207.4H37.1l-3.7,13.9h23.9L53.9,234H30l-7.2,27.1H1.3L19.7,192.3z"/>
<path fill="#002244" d="M74.1,194.4c0.4-1.5,1.1-2.8,2-4.1c1-1.2,2.1-2.3,3.4-3.2c1.3-0.9,2.7-1.6,4.2-2.1c1.5-0.5,3-0.7,4.4-0.7
	c1.7,0,3.1,0.3,4.4,0.9c1.2,0.6,2.2,1.4,2.9,2.3c0.7,1,1.2,2,1.4,3.2c0.2,1.2,0.2,2.4-0.2,3.6c-0.4,1.5-1.1,2.9-2,4.1
	c-1,1.2-2.1,2.3-3.3,3.2c-1.3,0.9-2.7,1.6-4.2,2.1c-1.5,0.5-3,0.8-4.4,0.8c-1.6,0-3-0.3-4.3-0.8c-1.2-0.5-2.2-1.2-3-2.2
	c-0.8-0.9-1.3-2-1.5-3.2S73.7,195.8,74.1,194.4z M88.2,258.4c-4.5,2.3-9.2,3.4-14,3.4c-2.8,0-5.2-0.5-7.2-1.4c-2-0.9-3.5-2.3-4.5-4
	c-1-1.7-1.6-3.8-1.7-6.3c-0.1-2.5,0.2-5.2,1-8.3L70,211h21.2l-8,29.9c-0.4,1.6-0.3,2.8,0.3,3.6c0.6,0.8,1.6,1.2,2.9,1.2
	c1.3,0,2.8-0.4,4.4-1.2L88.2,258.4z"/>
<path fill="#002244" d="M134.2,251.8c-2.4,3.3-5.2,5.7-8.3,7.5c-3.1,1.7-6.7,2.6-10.8,2.6c-3.3,0-6.2-0.7-8.8-2
	c-2.6-1.3-4.7-3.1-6.3-5.5c-1.6-2.3-2.7-5.1-3.2-8.3c-0.5-3.2-0.2-6.7,0.8-10.4c1-3.7,2.6-7.1,4.8-10.3c2.2-3.1,4.7-5.8,7.6-8.1
	c2.9-2.3,5.9-4,9.2-5.3c3.3-1.3,6.5-1.9,9.8-1.9c1.7,0,3.2,0.2,4.7,0.7s2.8,1.1,4,2.1c1.2,1,2.2,2.2,3,3.6c0.8,1.5,1.3,3.2,1.5,5.3
	l3.1-11.7h21l-13.6,50.8h-21L134.2,251.8z M138.5,235.7c0.3-1.3,0.3-2.5,0.1-3.7c-0.2-1.2-0.7-2.2-1.4-3.1c-0.7-0.9-1.5-1.5-2.6-2.1
	c-1-0.5-2.2-0.8-3.5-0.8c-1.4,0-2.8,0.3-4.2,0.8c-1.4,0.5-2.6,1.3-3.7,2.1c-1.1,0.9-2.1,1.9-3,3.1c-0.8,1.2-1.4,2.5-1.8,3.9
	c-0.4,1.4-0.5,2.8-0.2,4c0.2,1.2,0.7,2.3,1.4,3.1c0.7,0.9,1.6,1.6,2.6,2.1c1.1,0.5,2.3,0.8,3.6,0.8c1.4,0,2.7-0.3,4-0.8
	c1.3-0.5,2.5-1.2,3.6-2.1s2.1-1.9,2.9-3.1c0.8-1.2,1.4-2.4,1.9-3.6L138.5,235.7z"/>
<path fill="#002244" d="M176.1,211.7h20.1l-2.7,10.2c3-3.9,6.3-6.9,9.9-8.8c3.6-1.9,7.5-2.9,11.6-2.9c3.3,0,6.1,0.6,8.3,1.9
	c2.2,1.2,3.9,3,5,5.2c1.1,2.3,1.7,5,1.8,8.2c0,3.2-0.5,6.7-1.5,10.6l-6.7,25h-21l7.2-27.1c0.3-1.3,0.5-2.5,0.6-3.6
	c0.1-1.1-0.1-2.1-0.4-2.9c-0.3-0.8-0.8-1.4-1.5-1.9c-0.7-0.4-1.6-0.7-2.8-0.7c-1.4,0-2.8,0.4-4.2,1c-1.4,0.7-2.7,1.6-3.8,2.6
	c-1.2,1-2.2,2.1-3,3.1c-0.8,1.1-1.5,2-1.8,2.8l-7.1,26.5h-21.1L176.1,211.7z"/>
<path fill="#002244" d="M232.5,250.3l24.7-26.6h-16.9l3.4-12.8h41.6l-2.9,10.8l-22.6,26.5h16l-3.4,12.8h-42.8L232.5,250.3z"/>
<path fill="#002244" d="M321.5,251.8c-2.4,3.3-5.2,5.7-8.3,7.5c-3.1,1.7-6.7,2.6-10.8,2.6c-3.3,0-6.2-0.7-8.8-2
	c-2.6-1.3-4.7-3.1-6.3-5.5c-1.6-2.3-2.7-5.1-3.2-8.3c-0.5-3.2-0.2-6.7,0.8-10.4c1-3.7,2.6-7.1,4.8-10.3c2.2-3.1,4.7-5.8,7.6-8.1
	c2.9-2.3,5.9-4,9.2-5.3c3.3-1.3,6.5-1.9,9.8-1.9c1.7,0,3.2,0.2,4.7,0.7c1.5,0.4,2.8,1.1,4,2.1c1.2,1,2.2,2.2,3,3.6
	c0.8,1.5,1.3,3.2,1.5,5.3l3.1-11.7h21L340,261.1h-21L321.5,251.8z M325.8,235.7c0.3-1.3,0.3-2.5,0.1-3.7c-0.2-1.2-0.7-2.2-1.4-3.1
	c-0.7-0.9-1.5-1.5-2.6-2.1c-1-0.5-2.2-0.8-3.5-0.8c-1.4,0-2.8,0.3-4.2,0.8c-1.4,0.5-2.6,1.3-3.7,2.1c-1.1,0.9-2.1,1.9-3,3.1
	c-0.8,1.2-1.4,2.5-1.8,3.9c-0.4,1.4-0.5,2.8-0.2,4c0.2,1.2,0.7,2.3,1.4,3.1s1.6,1.6,2.6,2.1c1.1,0.5,2.3,0.8,3.6,0.8
	c1.4,0,2.7-0.3,4-0.8c1.3-0.5,2.5-1.2,3.6-2.1s2.1-1.9,2.9-3.1c0.8-1.2,1.4-2.4,1.9-3.6L325.8,235.7z"/>
<path fill="#69BE28" d="M162.4,268.4c-69.7,21.4-133,22.3-133,22.3s111,8.8,199.9-22.3H162.4z"/>
<path fill="#69BE28" d="M311.7,203.8l3.1-45.9l-41.3,20.3l8.3,5.6c-5.5,7.1-11.4,13.8-17.8,20h30.7l-3,11.3c0,0,7.3-8.8,11.4-17.1
	L311.7,203.8z"/>
</svg>
