<?xml version="1.0" encoding="utf-8"?>
<!-- Generator: Adobe Illustrator 18.0.0, SVG Export Plug-In . SVG Version: 6.00 Build 0)  -->
<!DOCTYPE svg PUBLIC "-//W3C//DTD SVG 1.1//EN" "http://www.w3.org/Graphics/SVG/1.1/DTD/svg11.dtd">
<svg version="1.1" id="Layer_1" xmlns="http://www.w3.org/2000/svg" xmlns:xlink="http://www.w3.org/1999/xlink" x="0px" y="0px"
	 viewBox="0 0 316.1 315.9" enable-background="new 0 0 316.1 315.9" xml:space="preserve">
<path fill="#FEFEFE" d="M158.1,8.3C75.4,8.3,8.4,75.3,8.4,158s67,149.7,149.7,149.7s149.7-67,149.7-149.7S240.7,8.3,158.1,8.3z
	 M70.2,124.4c0.5-8.6-0.7-17.3,0.8-25.9c1.5-8.6,6.2-16.1,14.2-21.9c0,11.7,0.1,22.7-0.1,33.6c0,3,0.6,4,3.8,4
	c3.2,0,3.4-1.4,3.3-3.9c-0.1-11.2,0-22.3,0-33.5c0-1.2-0.2-2.4,0.1-3.5c0.6-1.9,2.5-2.2,4.1-2.2c1.8,0,1.1,1.8,1.1,2.8
	c0.1,11.8,0,23.7,0,35.5c0,2.4-0.8,4.8,3.4,4.8c4.4,0,3.8-2.4,3.8-5.1c0-11.8,0-23.7,0-35.5c0-1.6-1-3.8,2.3-3.8
	c3.4-0.1,2.7,2.2,2.7,4c0,12.2,0.1,24.3,0,36.5c0,2.6,0.3,3.8,3.4,3.8c3.1,0,3.9-0.9,3.8-4c-0.2-12.2,0-24.3-0.1-36.5
	c0-3,0.7-3.9,3.8-3.9c31.2,0.1,62.3,0,93.5,0.1c18.1,0.1,33.4,15.3,33.9,33.3c0.2,7.2-0.1,14.3,0.1,21.5c0.1,2.5-0.5,3.4-3.3,3.4
	c-17-0.1-34-0.1-51,0c-2.1,0-3.3-1-4.8-2.2c-18.2-15.3-42-15.3-60.2,0.2c-1.7,1.4-3.2,2-5.3,2c-16.5-0.1-33-0.1-49.5,0
	C71.2,128.2,70,127.6,70.2,124.4z M194.1,160.3c-0.1,19.6-15.8,35-35.5,34.8c-19.2-0.2-34.7-15.9-34.6-35.3
	c0.1-19.5,15.9-34.9,35.6-34.8C178.8,125.1,194.2,140.9,194.1,160.3z M248,215.5c-0.2,17.9-15.8,32.9-34.2,33.1
	c-36.3,0.3-72.6,0.3-108.9,0c-19.3-0.1-34.4-15.5-34.6-34.9c-0.2-25.3,0-50.6-0.1-76c0-2.9,0.5-4.1,3.8-4.1
	c15.2,0.2,30.3,0.1,45.5,0.1c0.6,0,1.2,0.2,1.9,0.3c-12,26.6-8.7,47.2,9.8,61.7c16.2,12.8,39.2,12.9,55.6,0.3
	c18.7-14.3,22.1-34.7,10.1-62.4c8.3,0,16.4,0,24.5,0c7.8,0,15.7,0.1,23.5-0.1c2.6-0.1,3.3,0.8,3.3,3.4
	C248.1,163.2,248.3,189.3,248,215.5z"/>
<path fill="#FEFEFE" d="M201.9,99.5c-0.2-15.4-0.9-15,14.9-14.8c3,0,6,0,9,0c4,0.1,6.2,2.1,6.2,6.2c0,6.1,0.1,12.3,0,18.4
	c-0.1,3.8-2.2,5.8-6,5.8c-6,0-12,0-17.9,0c-4.1,0-6.1-2.1-6.1-6.1C201.9,105.8,201.9,102.7,201.9,99.5z"/>
<path fill="#FEFEFE" d="M185,159.9c0,14.2-11.4,25.9-25.5,26c-14.3,0.1-26.2-11.7-26.1-26c0.1-14.1,11.7-25.7,25.9-25.8
	C173.3,134.1,185,145.7,185,159.9z"/>
</svg>
