<?xml version="1.0" encoding="utf-8"?>
<!-- Generator: Adobe Illustrator 18.0.0, SVG Export Plug-In . SVG Version: 6.00 Build 0)  -->
<!DOCTYPE svg PUBLIC "-//W3C//DTD SVG 1.1//EN" "http://www.w3.org/Graphics/SVG/1.1/DTD/svg11.dtd">
<svg version="1.1" id="Layer_1" xmlns="http://www.w3.org/2000/svg" xmlns:xlink="http://www.w3.org/1999/xlink" x="0px" y="0px"
	 viewBox="0 0 316.1 315.9" enable-background="new 0 0 316.1 315.9" xml:space="preserve">
<path fill="#FFFFFF" d="M158.1,8.3C75.4,8.3,8.4,75.3,8.4,158s67,149.7,149.7,149.7s149.7-67,149.7-149.7S240.7,8.3,158.1,8.3z
	 M112.9,181.3c0,19.5,0,39.1,0,58.6c0,1.4-0.4,1.8-1.8,1.8c-12.2-0.1-24.5-0.1-36.7,0c-1.3,0-1.7-0.3-1.7-1.7c0-39.2,0-78.4,0-117.6
	c0-1.3,0.4-1.6,1.6-1.6c12.3,0,24.6,0.1,36.8,0c1.4,0,1.7,0.3,1.7,1.7C112.9,142.1,112.9,161.7,112.9,181.3z M115.3,86.4
	c-1,8-5.6,13.4-13.1,16.3c-3,1.2-6.2,1.6-9.5,1.6c-7.7-0.1-14.4-2.6-18.9-9.2c-7.2-10.7-3.4-27.4,11.9-31.5c7.5-2,14.8-1.5,21.3,3.1
	C113.8,71.5,116.3,78.4,115.3,86.4z M256.3,241.7c-12.4-0.1-24.8-0.1-37.2,0c-1.3,0-1.6-0.4-1.6-1.6c0-20.7,0-41.4,0-62
	c0-5.3-0.4-10.6-2.2-15.7c-3.1-8.8-10.3-13.1-19.7-12.5c-9.6,0.6-16.7,7.6-19.4,15.8c-1,3.1-0.9,6.4-0.9,9.6c0,21.5,0,43,0,64.5
	c0,2.2,0.3,1.9-2,1.9c-12.2,0-24.4,0-36.5,0c-1.4,0-1.7-0.3-1.7-1.7c0.1-31,0.2-62,0.2-93.1c0-8.2-0.1-16.4-0.2-24.6
	c0-1.3,0.3-1.6,1.6-1.6c12.3,0.1,24.7,0,37,0c1.2,0,1.7,0.3,1.6,1.6c-0.1,4.5,0,9,0,13.5c0,0.5,0,1,0,1.5c2.8-3.8,5.7-7.2,9.2-10.2
	c5.6-4.8,12.1-7.6,19.3-8.6c8-1.1,15.8-0.6,23.5,1.9c11,3.6,19,10.8,24.1,21.1c4.3,8.6,6,17.9,6.2,27.5c0.2,11,0.1,22,0.1,33
	c0,12.7,0,25.4,0,38.1C257.8,241.3,257.5,241.7,256.3,241.7z"/>
</svg>
